<svg width="2271" height="1859" viewBox="0 0 2271 1859" fill="none" xmlns="http://www.w3.org/2000/svg">
<g filter="url(#filter0_d_11_26)">
<path d="M379 1447V1195L509 1047L637 1177L379 1447Z" fill="#ECB365"/>
<path d="M379 1447V1195L509 1047L637 1177L379 1447Z" stroke="#ECB365"/>
</g>
<g filter="url(#filter1_d_11_26)">
<path d="M639 1175L511 1045L767 787V1045L639 1175Z" fill="#064663"/>
<path d="M639 1175L511 1045L767 787V1045L639 1175Z" stroke="#064663"/>
</g>
<g filter="url(#filter2_d_11_26)">
<path d="M379 1045V399L687 725L379 1045Z" fill="#ECB365"/>
<path d="M379 1045V399L687 725L379 1045Z" stroke="#ECB365"/>
</g>
<g filter="url(#filter3_d_11_26)">
<path d="M1491 807V901L1765 1175L1893 1043V383L1491 807Z" fill="#041C32"/>
<path d="M1491 807V901L1765 1175L1893 1043V383L1491 807Z" stroke="#041C32"/>
</g>
<g filter="url(#filter4_d_11_26)">
<path d="M1491 895V1455L1767 1173L1491 895Z" fill="#ECB365"/>
<path d="M1491 895V1455L1767 1173L1491 895Z" stroke="#ECB365"/>
</g>
<g filter="url(#filter5_d_11_26)">
<path d="M739 219H395L1137 1043V661L739 219Z" fill="#064663"/>
<path d="M739 219H395L1137 1043V661L739 219Z" stroke="#064663"/>
</g>
<g filter="url(#filter6_d_11_26)">
<path d="M1139 661C1140.33 780.333 1142.2 1024.2 1139 1045L1893 267V215H1561L1139 661Z" fill="#041C32"/>
<path d="M1139 661C1140.33 780.333 1142.2 1024.2 1139 1045L1893 267V215H1561L1139 661Z" stroke="#041C32"/>
</g>
<path d="M155.47 1698V1596.8L113.67 1673.6H100.47L58.4703 1596.8V1698H36.0703V1556H60.0703L107.07 1642.8L154.07 1556H178.07V1698H155.47ZM210.094 1698V1556H260.494C275.827 1556 288.627 1559.2 298.894 1565.6C309.16 1571.87 316.827 1580.4 321.894 1591.2C327.094 1601.87 329.694 1613.73 329.694 1626.8C329.694 1641.2 326.827 1653.73 321.094 1664.4C315.494 1675.07 307.494 1683.33 297.094 1689.2C286.694 1695.07 274.494 1698 260.494 1698H210.094ZM306.894 1626.8C306.894 1616.8 305.027 1608 301.294 1600.4C297.694 1592.67 292.427 1586.67 285.494 1582.4C278.694 1578 270.36 1575.8 260.494 1575.8H232.494V1678.2H260.494C270.494 1678.2 278.894 1675.93 285.694 1671.4C292.627 1666.87 297.894 1660.73 301.494 1653C305.094 1645.27 306.894 1636.53 306.894 1626.8ZM356.984 1556L399.784 1670.6L442.384 1556H466.184L410.384 1698H389.184L333.184 1556H356.984ZM526.309 1724V1543H545.109V1724H526.309ZM617.695 1626C617.695 1617.33 619.229 1608.87 622.295 1600.6C625.362 1592.2 629.829 1584.6 635.695 1577.8C641.695 1570.87 648.962 1565.4 657.495 1561.4C666.029 1557.27 675.695 1555.2 686.495 1555.2C699.295 1555.2 710.362 1558.13 719.695 1564C729.029 1569.73 735.962 1577.13 740.495 1586.2L722.895 1598C720.229 1592.27 716.829 1587.73 712.695 1584.4C708.695 1581.07 704.295 1578.73 699.495 1577.4C694.829 1576.07 690.229 1575.4 685.695 1575.4C678.229 1575.4 671.695 1576.93 666.095 1580C660.495 1582.93 655.762 1586.87 651.895 1591.8C648.162 1596.73 645.295 1602.27 643.295 1608.4C641.429 1614.53 640.495 1620.67 640.495 1626.8C640.495 1633.6 641.629 1640.2 643.895 1646.6C646.162 1652.87 649.295 1658.47 653.295 1663.4C657.429 1668.2 662.295 1672 667.895 1674.8C673.495 1677.6 679.629 1679 686.295 1679C690.829 1679 695.562 1678.2 700.495 1676.6C705.429 1675 709.962 1672.53 714.095 1669.2C718.362 1665.73 721.695 1661.2 724.095 1655.6L742.695 1666.2C739.762 1673.27 735.162 1679.27 728.895 1684.2C722.762 1689.13 715.829 1692.87 708.095 1695.4C700.495 1697.93 692.962 1699.2 685.495 1699.2C675.495 1699.2 666.362 1697.13 658.095 1693C649.829 1688.73 642.695 1683.13 636.695 1676.2C630.695 1669.13 626.029 1661.27 622.695 1652.6C619.362 1643.8 617.695 1634.93 617.695 1626ZM820.656 1699C810.39 1699 801.123 1697 792.856 1693C784.59 1689 777.456 1683.6 771.456 1676.8C765.456 1669.87 760.79 1662.13 757.456 1653.6C754.256 1644.93 752.656 1636.07 752.656 1627C752.656 1617.53 754.39 1608.53 757.856 1600C761.323 1591.33 766.123 1583.67 772.256 1577C778.39 1570.2 785.59 1564.87 793.856 1561C802.256 1557 811.323 1555 821.056 1555C831.19 1555 840.39 1557.07 848.656 1561.2C857.056 1565.33 864.19 1570.87 870.056 1577.8C876.056 1584.73 880.656 1592.47 883.856 1601C887.19 1609.53 888.856 1618.27 888.856 1627.2C888.856 1636.67 887.123 1645.73 883.656 1654.4C880.323 1662.93 875.59 1670.6 869.456 1677.4C863.323 1684.07 856.056 1689.33 847.656 1693.2C839.39 1697.07 830.39 1699 820.656 1699ZM775.456 1627C775.456 1633.67 776.523 1640.13 778.656 1646.4C780.79 1652.67 783.79 1658.27 787.656 1663.2C791.656 1668 796.456 1671.8 802.056 1674.6C807.656 1677.4 813.923 1678.8 820.856 1678.8C828.056 1678.8 834.456 1677.33 840.056 1674.4C845.656 1671.47 850.323 1667.53 854.056 1662.6C857.923 1657.53 860.856 1651.93 862.856 1645.8C864.856 1639.53 865.856 1633.27 865.856 1627C865.856 1620.33 864.79 1613.93 862.656 1607.8C860.656 1601.53 857.656 1596 853.656 1591.2C849.656 1586.27 844.856 1582.4 839.256 1579.6C833.79 1576.8 827.656 1575.4 820.856 1575.4C813.656 1575.4 807.256 1576.87 801.656 1579.8C796.056 1582.73 791.323 1586.67 787.456 1591.6C783.59 1596.53 780.59 1602.07 778.456 1608.2C776.456 1614.33 775.456 1620.6 775.456 1627ZM934.447 1597.6V1698H912.047V1556H930.447L1010.85 1658.6V1556.2H1033.45V1698H1013.85L934.447 1597.6ZM1149.37 1589.4C1148.03 1587.93 1146.1 1586.4 1143.57 1584.8C1141.03 1583.07 1138.03 1581.47 1134.57 1580C1131.1 1578.53 1127.37 1577.33 1123.37 1576.4C1119.37 1575.47 1115.23 1575 1110.97 1575C1101.63 1575 1094.7 1576.73 1090.17 1580.2C1085.63 1583.67 1083.37 1588.47 1083.37 1594.6C1083.37 1599.13 1084.63 1602.73 1087.17 1605.4C1089.7 1607.93 1093.57 1610.07 1098.77 1611.8C1103.97 1613.53 1110.5 1615.4 1118.37 1617.4C1127.97 1619.67 1136.3 1622.4 1143.37 1625.6C1150.43 1628.67 1155.83 1632.8 1159.57 1638C1163.3 1643.2 1165.17 1650.07 1165.17 1658.6C1165.17 1665.8 1163.83 1672 1161.17 1677.2C1158.5 1682.4 1154.77 1686.67 1149.97 1690C1145.17 1693.2 1139.63 1695.6 1133.37 1697.2C1127.1 1698.67 1120.37 1699.4 1113.17 1699.4C1106.1 1699.4 1099.03 1698.67 1091.97 1697.2C1085.03 1695.73 1078.37 1693.6 1071.97 1690.8C1065.7 1687.87 1059.9 1684.33 1054.57 1680.2L1064.77 1661C1066.5 1662.73 1068.97 1664.67 1072.17 1666.8C1075.5 1668.8 1079.3 1670.73 1083.57 1672.6C1087.97 1674.47 1092.7 1676.07 1097.77 1677.4C1102.97 1678.6 1108.23 1679.2 1113.57 1679.2C1122.5 1679.2 1129.3 1677.67 1133.97 1674.6C1138.77 1671.4 1141.17 1666.87 1141.17 1661C1141.17 1656.2 1139.63 1652.4 1136.57 1649.6C1133.5 1646.67 1129.03 1644.2 1123.17 1642.2C1117.3 1640.2 1110.3 1638.2 1102.17 1636.2C1092.83 1633.67 1085.03 1630.93 1078.77 1628C1072.5 1624.93 1067.77 1621.07 1064.57 1616.4C1061.5 1611.6 1059.97 1605.53 1059.97 1598.2C1059.97 1588.87 1062.23 1581 1066.77 1574.6C1071.3 1568.07 1077.43 1563.2 1085.17 1560C1093.03 1556.67 1101.83 1555 1111.57 1555C1117.97 1555 1124.03 1555.73 1129.77 1557.2C1135.5 1558.53 1140.83 1560.4 1145.77 1562.8C1150.83 1565.2 1155.43 1567.93 1159.57 1571L1149.37 1589.4ZM1291.83 1575.8H1244.63V1698H1222.03V1575.8H1174.63V1556H1291.83V1575.8ZM1310.88 1698V1556H1372.68C1379.08 1556 1384.94 1557.33 1390.28 1560C1395.61 1562.67 1400.21 1566.2 1404.08 1570.6C1408.08 1575 1411.14 1579.93 1413.28 1585.4C1415.54 1590.87 1416.68 1596.47 1416.68 1602.2C1416.68 1608.47 1415.54 1614.47 1413.28 1620.2C1411.01 1625.93 1407.74 1630.87 1403.48 1635C1399.34 1639.13 1394.48 1642.13 1388.88 1644L1422.28 1698H1397.08L1366.28 1648.6H1333.28V1698H1310.88ZM1333.28 1628.8H1372.48C1376.61 1628.8 1380.28 1627.6 1383.48 1625.2C1386.68 1622.8 1389.21 1619.6 1391.08 1615.6C1392.94 1611.47 1393.88 1607 1393.88 1602.2C1393.88 1597.27 1392.81 1592.87 1390.68 1589C1388.54 1585 1385.74 1581.8 1382.28 1579.4C1378.94 1577 1375.28 1575.8 1371.28 1575.8H1333.28V1628.8ZM1502.11 1699C1490.77 1699 1481.17 1697.07 1473.31 1693.2C1465.57 1689.33 1459.31 1684.07 1454.51 1677.4C1449.84 1670.73 1446.37 1663.13 1444.11 1654.6C1441.97 1646.07 1440.91 1637.2 1440.91 1628V1556H1463.31V1628C1463.31 1634.53 1463.97 1640.87 1465.31 1647C1466.64 1653 1468.77 1658.4 1471.71 1663.2C1474.64 1668 1478.57 1671.8 1483.51 1674.6C1488.57 1677.4 1494.77 1678.8 1502.11 1678.8C1509.57 1678.8 1515.77 1677.4 1520.71 1674.6C1525.77 1671.67 1529.71 1667.8 1532.51 1663C1535.44 1658.07 1537.57 1652.6 1538.91 1646.6C1540.24 1640.6 1540.91 1634.4 1540.91 1628V1556H1563.51V1628C1563.51 1637.73 1562.31 1646.93 1559.91 1655.6C1557.64 1664.13 1554.04 1671.67 1549.11 1678.2C1544.31 1684.6 1538.04 1689.67 1530.31 1693.4C1522.57 1697.13 1513.17 1699 1502.11 1699ZM1584.3 1626C1584.3 1617.33 1585.83 1608.87 1588.9 1600.6C1591.96 1592.2 1596.43 1584.6 1602.3 1577.8C1608.3 1570.87 1615.56 1565.4 1624.1 1561.4C1632.63 1557.27 1642.3 1555.2 1653.1 1555.2C1665.9 1555.2 1676.96 1558.13 1686.3 1564C1695.63 1569.73 1702.56 1577.13 1707.1 1586.2L1689.5 1598C1686.83 1592.27 1683.43 1587.73 1679.3 1584.4C1675.3 1581.07 1670.9 1578.73 1666.1 1577.4C1661.43 1576.07 1656.83 1575.4 1652.3 1575.4C1644.83 1575.4 1638.3 1576.93 1632.7 1580C1627.1 1582.93 1622.36 1586.87 1618.5 1591.8C1614.76 1596.73 1611.9 1602.27 1609.9 1608.4C1608.03 1614.53 1607.1 1620.67 1607.1 1626.8C1607.1 1633.6 1608.23 1640.2 1610.5 1646.6C1612.76 1652.87 1615.9 1658.47 1619.9 1663.4C1624.03 1668.2 1628.9 1672 1634.5 1674.8C1640.1 1677.6 1646.23 1679 1652.9 1679C1657.43 1679 1662.16 1678.2 1667.1 1676.6C1672.03 1675 1676.56 1672.53 1680.7 1669.2C1684.96 1665.73 1688.3 1661.2 1690.7 1655.6L1709.3 1666.2C1706.36 1673.27 1701.76 1679.27 1695.5 1684.2C1689.36 1689.13 1682.43 1692.87 1674.7 1695.4C1667.1 1697.93 1659.56 1699.2 1652.1 1699.2C1642.1 1699.2 1632.96 1697.13 1624.7 1693C1616.43 1688.73 1609.3 1683.13 1603.3 1676.2C1597.3 1669.13 1592.63 1661.27 1589.3 1652.6C1585.96 1643.8 1584.3 1634.93 1584.3 1626ZM1834.22 1575.8H1787.02V1698H1764.42V1575.8H1717.02V1556H1834.22V1575.8ZM1908.35 1699C1898.08 1699 1888.82 1697 1880.55 1693C1872.28 1689 1865.15 1683.6 1859.15 1676.8C1853.15 1669.87 1848.48 1662.13 1845.15 1653.6C1841.95 1644.93 1840.35 1636.07 1840.35 1627C1840.35 1617.53 1842.08 1608.53 1845.55 1600C1849.02 1591.33 1853.82 1583.67 1859.95 1577C1866.08 1570.2 1873.28 1564.87 1881.55 1561C1889.95 1557 1899.02 1555 1908.75 1555C1918.88 1555 1928.08 1557.07 1936.35 1561.2C1944.75 1565.33 1951.88 1570.87 1957.75 1577.8C1963.75 1584.73 1968.35 1592.47 1971.55 1601C1974.88 1609.53 1976.55 1618.27 1976.55 1627.2C1976.55 1636.67 1974.82 1645.73 1971.35 1654.4C1968.02 1662.93 1963.28 1670.6 1957.15 1677.4C1951.02 1684.07 1943.75 1689.33 1935.35 1693.2C1927.08 1697.07 1918.08 1699 1908.35 1699ZM1863.15 1627C1863.15 1633.67 1864.22 1640.13 1866.35 1646.4C1868.48 1652.67 1871.48 1658.27 1875.35 1663.2C1879.35 1668 1884.15 1671.8 1889.75 1674.6C1895.35 1677.4 1901.62 1678.8 1908.55 1678.8C1915.75 1678.8 1922.15 1677.33 1927.75 1674.4C1933.35 1671.47 1938.02 1667.53 1941.75 1662.6C1945.62 1657.53 1948.55 1651.93 1950.55 1645.8C1952.55 1639.53 1953.55 1633.27 1953.55 1627C1953.55 1620.33 1952.48 1613.93 1950.35 1607.8C1948.35 1601.53 1945.35 1596 1941.35 1591.2C1937.35 1586.27 1932.55 1582.4 1926.95 1579.6C1921.48 1576.8 1915.35 1575.4 1908.55 1575.4C1901.35 1575.4 1894.95 1576.87 1889.35 1579.8C1883.75 1582.73 1879.02 1586.67 1875.15 1591.6C1871.28 1596.53 1868.28 1602.07 1866.15 1608.2C1864.15 1614.33 1863.15 1620.6 1863.15 1627ZM1999.74 1698V1556H2061.54C2067.94 1556 2073.81 1557.33 2079.14 1560C2084.48 1562.67 2089.08 1566.2 2092.94 1570.6C2096.94 1575 2100.01 1579.93 2102.14 1585.4C2104.41 1590.87 2105.54 1596.47 2105.54 1602.2C2105.54 1608.47 2104.41 1614.47 2102.14 1620.2C2099.88 1625.93 2096.61 1630.87 2092.34 1635C2088.21 1639.13 2083.34 1642.13 2077.74 1644L2111.14 1698H2085.94L2055.14 1648.6H2022.14V1698H1999.74ZM2022.14 1628.8H2061.34C2065.48 1628.8 2069.14 1627.6 2072.34 1625.2C2075.54 1622.8 2078.08 1619.6 2079.94 1615.6C2081.81 1611.47 2082.74 1607 2082.74 1602.2C2082.74 1597.27 2081.68 1592.87 2079.54 1589C2077.41 1585 2074.61 1581.8 2071.14 1579.4C2067.81 1577 2064.14 1575.8 2060.14 1575.8H2022.14V1628.8ZM2172.97 1556H2194.17L2249.37 1698H2225.77L2210.77 1659.4H2155.97L2141.17 1698H2117.37L2172.97 1556ZM2206.37 1642.8L2183.57 1580.6L2159.97 1642.8H2206.37Z" fill="#041C32"/>
<defs>
<filter id="filter0_d_11_26" x="374.5" y="1046.27" width="267.197" height="409.981" filterUnits="userSpaceOnUse" color-interpolation-filters="sRGB">
<feFlood flood-opacity="0" result="BackgroundImageFix"/>
<feColorMatrix in="SourceAlpha" type="matrix" values="0 0 0 0 0 0 0 0 0 0 0 0 0 0 0 0 0 0 127 0" result="hardAlpha"/>
<feOffset dy="4"/>
<feGaussianBlur stdDeviation="2"/>
<feComposite in2="hardAlpha" operator="out"/>
<feColorMatrix type="matrix" values="0 0 0 0 0 0 0 0 0 0 0 0 0 0 0 0 0 0 0.25 0"/>
<feBlend mode="normal" in2="BackgroundImageFix" result="effect1_dropShadow_11_26"/>
<feBlend mode="normal" in="SourceGraphic" in2="effect1_dropShadow_11_26" result="shape"/>
</filter>
<filter id="filter1_d_11_26" x="506.297" y="785.786" width="265.203" height="397.927" filterUnits="userSpaceOnUse" color-interpolation-filters="sRGB">
<feFlood flood-opacity="0" result="BackgroundImageFix"/>
<feColorMatrix in="SourceAlpha" type="matrix" values="0 0 0 0 0 0 0 0 0 0 0 0 0 0 0 0 0 0 127 0" result="hardAlpha"/>
<feOffset dy="4"/>
<feGaussianBlur stdDeviation="2"/>
<feComposite in2="hardAlpha" operator="out"/>
<feColorMatrix type="matrix" values="0 0 0 0 0 0 0 0 0 0 0 0 0 0 0 0 0 0 0.25 0"/>
<feBlend mode="normal" in2="BackgroundImageFix" result="effect1_dropShadow_11_26"/>
<feBlend mode="normal" in="SourceGraphic" in2="effect1_dropShadow_11_26" result="shape"/>
</filter>
<filter id="filter2_d_11_26" x="374.5" y="397.743" width="317.191" height="656.498" filterUnits="userSpaceOnUse" color-interpolation-filters="sRGB">
<feFlood flood-opacity="0" result="BackgroundImageFix"/>
<feColorMatrix in="SourceAlpha" type="matrix" values="0 0 0 0 0 0 0 0 0 0 0 0 0 0 0 0 0 0 127 0" result="hardAlpha"/>
<feOffset dy="4"/>
<feGaussianBlur stdDeviation="2"/>
<feComposite in2="hardAlpha" operator="out"/>
<feColorMatrix type="matrix" values="0 0 0 0 0 0 0 0 0 0 0 0 0 0 0 0 0 0 0.25 0"/>
<feBlend mode="normal" in2="BackgroundImageFix" result="effect1_dropShadow_11_26"/>
<feBlend mode="normal" in="SourceGraphic" in2="effect1_dropShadow_11_26" result="shape"/>
</filter>
<filter id="filter3_d_11_26" x="1486.5" y="381.746" width="411" height="801.967" filterUnits="userSpaceOnUse" color-interpolation-filters="sRGB">
<feFlood flood-opacity="0" result="BackgroundImageFix"/>
<feColorMatrix in="SourceAlpha" type="matrix" values="0 0 0 0 0 0 0 0 0 0 0 0 0 0 0 0 0 0 127 0" result="hardAlpha"/>
<feOffset dy="4"/>
<feGaussianBlur stdDeviation="2"/>
<feComposite in2="hardAlpha" operator="out"/>
<feColorMatrix type="matrix" values="0 0 0 0 0 0 0 0 0 0 0 0 0 0 0 0 0 0 0.25 0"/>
<feBlend mode="normal" in2="BackgroundImageFix" result="effect1_dropShadow_11_26"/>
<feBlend mode="normal" in="SourceGraphic" in2="effect1_dropShadow_11_26" result="shape"/>
</filter>
<filter id="filter4_d_11_26" x="1486.5" y="893.787" width="285.202" height="570.439" filterUnits="userSpaceOnUse" color-interpolation-filters="sRGB">
<feFlood flood-opacity="0" result="BackgroundImageFix"/>
<feColorMatrix in="SourceAlpha" type="matrix" values="0 0 0 0 0 0 0 0 0 0 0 0 0 0 0 0 0 0 127 0" result="hardAlpha"/>
<feOffset dy="4"/>
<feGaussianBlur stdDeviation="2"/>
<feComposite in2="hardAlpha" operator="out"/>
<feColorMatrix type="matrix" values="0 0 0 0 0 0 0 0 0 0 0 0 0 0 0 0 0 0 0.25 0"/>
<feBlend mode="normal" in2="BackgroundImageFix" result="effect1_dropShadow_11_26"/>
<feBlend mode="normal" in="SourceGraphic" in2="effect1_dropShadow_11_26" result="shape"/>
</filter>
<filter id="filter5_d_11_26" x="389.877" y="218.5" width="751.623" height="833.802" filterUnits="userSpaceOnUse" color-interpolation-filters="sRGB">
<feFlood flood-opacity="0" result="BackgroundImageFix"/>
<feColorMatrix in="SourceAlpha" type="matrix" values="0 0 0 0 0 0 0 0 0 0 0 0 0 0 0 0 0 0 127 0" result="hardAlpha"/>
<feOffset dy="4"/>
<feGaussianBlur stdDeviation="2"/>
<feComposite in2="hardAlpha" operator="out"/>
<feColorMatrix type="matrix" values="0 0 0 0 0 0 0 0 0 0 0 0 0 0 0 0 0 0 0.25 0"/>
<feBlend mode="normal" in2="BackgroundImageFix" result="effect1_dropShadow_11_26"/>
<feBlend mode="normal" in="SourceGraphic" in2="effect1_dropShadow_11_26" result="shape"/>
</filter>
<filter id="filter6_d_11_26" x="1134.27" y="214.5" width="763.233" height="839.975" filterUnits="userSpaceOnUse" color-interpolation-filters="sRGB">
<feFlood flood-opacity="0" result="BackgroundImageFix"/>
<feColorMatrix in="SourceAlpha" type="matrix" values="0 0 0 0 0 0 0 0 0 0 0 0 0 0 0 0 0 0 127 0" result="hardAlpha"/>
<feOffset dy="4"/>
<feGaussianBlur stdDeviation="2"/>
<feComposite in2="hardAlpha" operator="out"/>
<feColorMatrix type="matrix" values="0 0 0 0 0 0 0 0 0 0 0 0 0 0 0 0 0 0 0.25 0"/>
<feBlend mode="normal" in2="BackgroundImageFix" result="effect1_dropShadow_11_26"/>
<feBlend mode="normal" in="SourceGraphic" in2="effect1_dropShadow_11_26" result="shape"/>
</filter>
</defs>
</svg>
