<svg width="2271" height="1859" viewBox="0 0 2271 1859" fill="none" xmlns="http://www.w3.org/2000/svg">
<g filter="url(#filter0_d_11_26)">
<path d="M379 1447V1195L509 1047L637 1177L379 1447Z" fill="#ECB365"/>
<path d="M379 1447V1195L509 1047L637 1177L379 1447Z" stroke="#ECB365"/>
</g>
<g filter="url(#filter1_d_11_26)">
<path d="M639 1175L511 1045L767 787V1045L639 1175Z" fill="#064663"/>
<path d="M639 1175L511 1045L767 787V1045L639 1175Z" stroke="#064663"/>
</g>
<g filter="url(#filter2_d_11_26)">
<path d="M379 1045V399L687 725L379 1045Z" fill="#ECB365"/>
<path d="M379 1045V399L687 725L379 1045Z" stroke="#ECB365"/>
</g>
<g filter="url(#filter3_d_11_26)">
<path d="M1491 807V901L1765 1175L1893 1043V383L1491 807Z" fill="#041C32"/>
<path d="M1491 807V901L1765 1175L1893 1043V383L1491 807Z" stroke="#041C32"/>
</g>
<g filter="url(#filter4_d_11_26)">
<path d="M1491 895V1455L1767 1173L1491 895Z" fill="#ECB365"/>
<path d="M1491 895V1455L1767 1173L1491 895Z" stroke="#ECB365"/>
</g>
<g filter="url(#filter5_d_11_26)">
<path d="M739 219H395L1137 1043V661L739 219Z" fill="#064663"/>
<path d="M739 219H395L1137 1043V661L739 219Z" stroke="#064663"/>
</g>
<g filter="url(#filter6_d_11_26)">
<path d="M1139 661C1140.33 780.333 1142.2 1024.2 1139 1045L1893 267V215H1561L1139 661Z" fill="#041C32"/>
<path d="M1139 661C1140.33 780.333 1142.2 1024.2 1139 1045L1893 267V215H1561L1139 661Z" stroke="#041C32"/>
</g>
<path d="M461.264 1639V1564.75L429.206 1621.88H421.671L389.476 1564.75V1639H377.146V1541.73H390.161L425.37 1604.89L460.716 1541.73H473.594V1639H461.264ZM496.887 1639V1541.73H530.589C541.001 1541.73 549.678 1543.92 556.619 1548.31C563.652 1552.6 568.904 1558.44 572.374 1565.84C575.845 1573.15 577.58 1581.28 577.58 1590.23C577.58 1600.09 575.662 1608.68 571.826 1615.98C567.99 1623.29 562.556 1628.95 555.523 1632.97C548.491 1636.99 540.179 1639 530.589 1639H496.887ZM565.113 1590.23C565.113 1582.92 563.743 1576.44 561.003 1570.77C558.355 1565.11 554.473 1560.68 549.358 1557.48C544.244 1554.29 537.987 1552.69 530.589 1552.69H509.217V1628.04H530.589C538.079 1628.04 544.381 1626.4 549.495 1623.11C554.61 1619.73 558.492 1615.21 561.14 1609.54C563.789 1603.79 565.113 1597.35 565.113 1590.23ZM594.082 1541.73L626.277 1623.52L658.335 1541.73H671.35L631.894 1639H620.66L581.067 1541.73H594.082ZM714.017 1656.81V1532.82H724.429V1656.81H714.017ZM775.69 1589.68C775.69 1583.74 776.694 1577.94 778.704 1572.28C780.804 1566.53 783.818 1561.32 787.746 1556.66C791.764 1551.91 796.651 1548.17 802.405 1545.43C808.159 1542.6 814.689 1541.18 821.996 1541.18C830.672 1541.18 838.116 1543.19 844.327 1547.21C850.537 1551.14 855.15 1556.21 858.164 1562.42L848.437 1568.72C846.519 1564.61 844.053 1561.37 841.039 1558.99C838.116 1556.53 834.919 1554.79 831.449 1553.79C828.069 1552.78 824.736 1552.28 821.448 1552.28C816.059 1552.28 811.264 1553.37 807.063 1555.57C802.953 1557.76 799.482 1560.68 796.651 1564.33C793.819 1567.99 791.673 1572.1 790.212 1576.66C788.842 1581.14 788.157 1585.66 788.157 1590.23C788.157 1595.25 788.979 1600.09 790.623 1604.75C792.358 1609.41 794.733 1613.52 797.747 1617.08C800.761 1620.64 804.323 1623.47 808.433 1625.57C812.543 1627.67 817.018 1628.72 821.859 1628.72C825.238 1628.72 828.709 1628.13 832.271 1626.94C835.833 1625.76 839.166 1623.93 842.272 1621.46C845.377 1618.91 847.843 1615.62 849.67 1611.6L859.945 1617.22C857.935 1622.06 854.83 1626.17 850.629 1629.55C846.427 1632.93 841.724 1635.48 836.518 1637.22C831.403 1638.95 826.334 1639.82 821.311 1639.82C814.643 1639.82 808.524 1638.41 802.953 1635.57C797.381 1632.65 792.541 1628.82 788.431 1624.07C784.412 1619.23 781.261 1613.84 778.978 1607.9C776.786 1601.87 775.69 1595.8 775.69 1589.68ZM913.762 1639.69C906.912 1639.69 900.701 1638.32 895.13 1635.57C889.559 1632.83 884.718 1629.14 880.608 1624.48C876.589 1619.73 873.484 1614.43 871.292 1608.59C869.1 1602.65 868.004 1596.58 868.004 1590.36C868.004 1583.88 869.146 1577.72 871.429 1571.87C873.804 1565.93 877.046 1560.68 881.156 1556.11C885.357 1551.46 890.244 1547.8 895.815 1545.15C901.386 1542.41 907.46 1541.04 914.036 1541.04C920.886 1541.04 927.097 1542.46 932.668 1545.29C938.239 1548.12 943.034 1551.91 947.053 1556.66C951.072 1561.41 954.177 1566.71 956.369 1572.55C958.561 1578.4 959.657 1584.38 959.657 1590.5C959.657 1596.99 958.515 1603.2 956.232 1609.13C953.949 1614.98 950.706 1620.23 946.505 1624.89C942.395 1629.46 937.554 1633.06 931.983 1635.71C926.412 1638.36 920.338 1639.69 913.762 1639.69ZM880.471 1590.36C880.471 1595.3 881.247 1600.09 882.8 1604.75C884.444 1609.32 886.727 1613.38 889.65 1616.94C892.573 1620.5 896.089 1623.34 900.199 1625.44C904.309 1627.54 908.876 1628.59 913.899 1628.59C919.105 1628.59 923.763 1627.49 927.873 1625.3C931.983 1623.11 935.454 1620.19 938.285 1616.53C941.208 1612.88 943.4 1608.77 944.861 1604.2C946.414 1599.64 947.19 1595.02 947.19 1590.36C947.19 1585.43 946.368 1580.68 944.724 1576.12C943.171 1571.55 940.888 1567.49 937.874 1563.92C934.951 1560.27 931.435 1557.44 927.325 1555.43C923.306 1553.33 918.831 1552.28 913.899 1552.28C908.693 1552.28 904.035 1553.37 899.925 1555.57C895.815 1557.67 892.299 1560.54 889.376 1564.2C886.545 1567.85 884.353 1571.96 882.8 1576.53C881.247 1581 880.471 1585.62 880.471 1590.36ZM989.119 1564.47V1639H976.789V1541.73H987.201L1046.66 1617.76V1541.87H1058.99V1639H1047.75L989.119 1564.47ZM1139.34 1562.14C1138.25 1560.86 1136.79 1559.63 1134.96 1558.44C1133.13 1557.26 1131.08 1556.21 1128.79 1555.29C1126.51 1554.29 1124 1553.51 1121.26 1552.96C1118.61 1552.32 1115.83 1552 1112.9 1552C1105.41 1552 1099.89 1553.42 1096.33 1556.25C1092.76 1559.08 1090.98 1562.96 1090.98 1567.9C1090.98 1571.37 1091.9 1574.11 1093.72 1576.12C1095.55 1578.13 1098.33 1579.77 1102.08 1581.05C1105.92 1582.33 1110.76 1583.65 1116.6 1585.02C1123.36 1586.48 1129.21 1588.26 1134.14 1590.36C1139.07 1592.47 1142.86 1595.3 1145.51 1598.86C1148.16 1602.33 1149.48 1606.99 1149.48 1612.83C1149.48 1617.49 1148.57 1621.56 1146.74 1625.03C1145.01 1628.41 1142.54 1631.24 1139.34 1633.52C1136.15 1635.71 1132.4 1637.36 1128.11 1638.45C1123.82 1639.46 1119.16 1639.96 1114.14 1639.96C1109.2 1639.96 1104.36 1639.46 1099.61 1638.45C1094.96 1637.36 1090.53 1635.8 1086.32 1633.79C1082.12 1631.78 1078.2 1629.27 1074.54 1626.26L1080.43 1615.85C1081.89 1617.4 1083.77 1618.95 1086.05 1620.5C1088.43 1621.97 1091.07 1623.34 1094 1624.61C1097.01 1625.89 1100.25 1626.94 1103.72 1627.77C1107.19 1628.5 1110.76 1628.86 1114.41 1628.86C1121.35 1628.86 1126.74 1627.63 1130.58 1625.16C1134.41 1622.61 1136.33 1618.91 1136.33 1614.07C1136.33 1610.41 1135.23 1607.49 1133.04 1605.3C1130.94 1603.11 1127.79 1601.28 1123.59 1599.82C1119.39 1598.36 1114.27 1596.9 1108.24 1595.43C1101.67 1593.79 1096.14 1592.01 1091.67 1590.09C1087.19 1588.08 1083.81 1585.48 1081.53 1582.28C1079.34 1579.09 1078.24 1574.93 1078.24 1569.82C1078.24 1563.6 1079.75 1558.35 1082.76 1554.06C1085.78 1549.77 1089.93 1546.52 1095.23 1544.33C1100.53 1542.14 1106.51 1541.04 1113.18 1541.04C1117.56 1541.04 1121.62 1541.5 1125.37 1542.41C1129.21 1543.33 1132.77 1544.61 1136.06 1546.25C1139.34 1547.89 1142.36 1549.86 1145.1 1552.14L1139.34 1562.14ZM1235.84 1552.69H1202.28V1639H1189.95V1552.69H1156.38V1541.73H1235.84V1552.69ZM1249.85 1639V1541.73H1291.5C1295.79 1541.73 1299.72 1542.64 1303.28 1544.47C1306.84 1546.21 1309.95 1548.58 1312.6 1551.59C1315.25 1554.52 1317.3 1557.85 1318.76 1561.6C1320.22 1565.25 1320.96 1568.99 1320.96 1572.83C1320.96 1577.3 1320.09 1581.55 1318.35 1585.57C1316.71 1589.59 1314.33 1593.01 1311.23 1595.84C1308.21 1598.68 1304.65 1600.64 1300.54 1601.74L1324.11 1639H1310.13L1287.94 1604.06H1262.18V1639H1249.85ZM1262.18 1593.1H1291.64C1295.02 1593.1 1297.94 1592.19 1300.41 1590.36C1302.96 1588.45 1304.93 1585.94 1306.3 1582.83C1307.76 1579.72 1308.49 1576.39 1308.49 1572.83C1308.49 1569.18 1307.67 1565.84 1306.02 1562.83C1304.38 1559.72 1302.23 1557.26 1299.58 1555.43C1296.93 1553.6 1294.01 1552.69 1290.82 1552.69H1262.18V1593.1ZM1380.03 1639.69C1372.27 1639.69 1365.74 1638.36 1360.44 1635.71C1355.14 1632.97 1350.9 1629.32 1347.7 1624.75C1344.5 1620.09 1342.18 1614.84 1340.71 1609C1339.25 1603.15 1338.52 1597.12 1338.52 1590.91V1541.73H1350.85V1590.91C1350.85 1595.66 1351.31 1600.32 1352.22 1604.89C1353.23 1609.36 1354.83 1613.38 1357.02 1616.94C1359.21 1620.5 1362.18 1623.34 1365.92 1625.44C1369.67 1627.54 1374.32 1628.59 1379.9 1628.59C1385.56 1628.59 1390.26 1627.54 1394.01 1625.44C1397.75 1623.24 1400.72 1620.37 1402.91 1616.81C1405.1 1613.15 1406.66 1609.09 1407.57 1604.61C1408.57 1600.14 1409.08 1595.57 1409.08 1590.91V1541.73H1421.41V1590.91C1421.41 1597.49 1420.63 1603.75 1419.08 1609.68C1417.62 1615.53 1415.24 1620.69 1411.95 1625.16C1408.67 1629.64 1404.37 1633.2 1399.08 1635.85C1393.87 1638.41 1387.52 1639.69 1380.03 1639.69ZM1437.01 1589.68C1437.01 1583.74 1438.01 1577.94 1440.02 1572.28C1442.12 1566.53 1445.14 1561.32 1449.07 1556.66C1453.08 1551.91 1457.97 1548.17 1463.72 1545.43C1469.48 1542.6 1476.01 1541.18 1483.32 1541.18C1491.99 1541.18 1499.44 1543.19 1505.65 1547.21C1511.86 1551.14 1516.47 1556.21 1519.48 1562.42L1509.76 1568.72C1507.84 1564.61 1505.37 1561.37 1502.36 1558.99C1499.44 1556.53 1496.24 1554.79 1492.77 1553.79C1489.39 1552.78 1486.06 1552.28 1482.77 1552.28C1477.38 1552.28 1472.58 1553.37 1468.38 1555.57C1464.27 1557.76 1460.8 1560.68 1457.97 1564.33C1455.14 1567.99 1452.99 1572.1 1451.53 1576.66C1450.16 1581.14 1449.48 1585.66 1449.48 1590.23C1449.48 1595.25 1450.3 1600.09 1451.94 1604.75C1453.68 1609.41 1456.05 1613.52 1459.07 1617.08C1462.08 1620.64 1465.64 1623.47 1469.75 1625.57C1473.86 1627.67 1478.34 1628.72 1483.18 1628.72C1486.56 1628.72 1490.03 1628.13 1493.59 1626.94C1497.15 1625.76 1500.49 1623.93 1503.59 1621.46C1506.7 1618.91 1509.16 1615.62 1510.99 1611.6L1521.26 1617.22C1519.25 1622.06 1516.15 1626.17 1511.95 1629.55C1507.75 1632.93 1503.04 1635.48 1497.84 1637.22C1492.72 1638.95 1487.65 1639.82 1482.63 1639.82C1475.96 1639.82 1469.84 1638.41 1464.27 1635.57C1458.7 1632.65 1453.86 1628.82 1449.75 1624.07C1445.73 1619.23 1442.58 1613.84 1440.3 1607.9C1438.11 1601.87 1437.01 1595.8 1437.01 1589.68ZM1606.84 1552.69H1573.27V1639H1560.94V1552.69H1527.38V1541.73H1606.84V1552.69ZM1657.36 1639.69C1650.51 1639.69 1644.3 1638.32 1638.73 1635.57C1633.16 1632.83 1628.32 1629.14 1624.21 1624.48C1620.19 1619.73 1617.08 1614.43 1614.89 1608.59C1612.7 1602.65 1611.6 1596.58 1611.6 1590.36C1611.6 1583.88 1612.75 1577.72 1615.03 1571.87C1617.4 1565.93 1620.65 1560.68 1624.76 1556.11C1628.96 1551.46 1633.84 1547.8 1639.41 1545.15C1644.99 1542.41 1651.06 1541.04 1657.64 1541.04C1664.49 1541.04 1670.7 1542.46 1676.27 1545.29C1681.84 1548.12 1686.63 1551.91 1690.65 1556.66C1694.67 1561.41 1697.78 1566.71 1699.97 1572.55C1702.16 1578.4 1703.26 1584.38 1703.26 1590.5C1703.26 1596.99 1702.12 1603.2 1699.83 1609.13C1697.55 1614.98 1694.31 1620.23 1690.1 1624.89C1685.99 1629.46 1681.15 1633.06 1675.58 1635.71C1670.01 1638.36 1663.94 1639.69 1657.36 1639.69ZM1624.07 1590.36C1624.07 1595.3 1624.85 1600.09 1626.4 1604.75C1628.04 1609.32 1630.33 1613.38 1633.25 1616.94C1636.17 1620.5 1639.69 1623.34 1643.8 1625.44C1647.91 1627.54 1652.48 1628.59 1657.5 1628.59C1662.7 1628.59 1667.36 1627.49 1671.47 1625.3C1675.58 1623.11 1679.05 1620.19 1681.88 1616.53C1684.81 1612.88 1687 1608.77 1688.46 1604.2C1690.01 1599.64 1690.79 1595.02 1690.79 1590.36C1690.79 1585.43 1689.97 1580.68 1688.32 1576.12C1686.77 1571.55 1684.49 1567.49 1681.47 1563.92C1678.55 1560.27 1675.03 1557.44 1670.92 1555.43C1666.91 1553.33 1662.43 1552.28 1657.5 1552.28C1652.29 1552.28 1647.63 1553.37 1643.52 1555.57C1639.41 1557.67 1635.9 1560.54 1632.98 1564.2C1630.14 1567.85 1627.95 1571.96 1626.4 1576.53C1624.85 1581 1624.07 1585.62 1624.07 1590.36ZM1720.39 1639V1541.73H1762.04C1766.33 1541.73 1770.26 1542.64 1773.82 1544.47C1777.38 1546.21 1780.49 1548.58 1783.13 1551.59C1785.78 1554.52 1787.84 1557.85 1789.3 1561.6C1790.76 1565.25 1791.49 1568.99 1791.49 1572.83C1791.49 1577.3 1790.62 1581.55 1788.89 1585.57C1787.24 1589.59 1784.87 1593.01 1781.76 1595.84C1778.75 1598.68 1775.19 1600.64 1771.08 1601.74L1794.64 1639H1780.67L1758.47 1604.06H1732.72V1639H1720.39ZM1732.72 1593.1H1762.17C1765.55 1593.1 1768.48 1592.19 1770.94 1590.36C1773.5 1588.45 1775.46 1585.94 1776.83 1582.83C1778.29 1579.72 1779.02 1576.39 1779.02 1572.83C1779.02 1569.18 1778.2 1565.84 1776.56 1562.83C1774.91 1559.72 1772.77 1557.26 1770.12 1555.43C1767.47 1553.6 1764.55 1552.69 1761.35 1552.69H1732.72V1593.1ZM1840.02 1541.73H1850.43L1890.16 1639H1877.01L1865.5 1610.5H1824.68L1813.31 1639H1800.15L1840.02 1541.73ZM1862.76 1600.91L1845.23 1555.98L1827.14 1600.91H1862.76Z" fill="#041C32"/>
<defs>
<filter id="filter0_d_11_26" x="374.5" y="1046.27" width="267.196" height="409.981" filterUnits="userSpaceOnUse" color-interpolation-filters="sRGB">
<feFlood flood-opacity="0" result="BackgroundImageFix"/>
<feColorMatrix in="SourceAlpha" type="matrix" values="0 0 0 0 0 0 0 0 0 0 0 0 0 0 0 0 0 0 127 0" result="hardAlpha"/>
<feOffset dy="4"/>
<feGaussianBlur stdDeviation="2"/>
<feComposite in2="hardAlpha" operator="out"/>
<feColorMatrix type="matrix" values="0 0 0 0 0 0 0 0 0 0 0 0 0 0 0 0 0 0 0.25 0"/>
<feBlend mode="normal" in2="BackgroundImageFix" result="effect1_dropShadow_11_26"/>
<feBlend mode="normal" in="SourceGraphic" in2="effect1_dropShadow_11_26" result="shape"/>
</filter>
<filter id="filter1_d_11_26" x="506.297" y="785.786" width="265.203" height="397.926" filterUnits="userSpaceOnUse" color-interpolation-filters="sRGB">
<feFlood flood-opacity="0" result="BackgroundImageFix"/>
<feColorMatrix in="SourceAlpha" type="matrix" values="0 0 0 0 0 0 0 0 0 0 0 0 0 0 0 0 0 0 127 0" result="hardAlpha"/>
<feOffset dy="4"/>
<feGaussianBlur stdDeviation="2"/>
<feComposite in2="hardAlpha" operator="out"/>
<feColorMatrix type="matrix" values="0 0 0 0 0 0 0 0 0 0 0 0 0 0 0 0 0 0 0.25 0"/>
<feBlend mode="normal" in2="BackgroundImageFix" result="effect1_dropShadow_11_26"/>
<feBlend mode="normal" in="SourceGraphic" in2="effect1_dropShadow_11_26" result="shape"/>
</filter>
<filter id="filter2_d_11_26" x="374.5" y="397.743" width="317.19" height="656.498" filterUnits="userSpaceOnUse" color-interpolation-filters="sRGB">
<feFlood flood-opacity="0" result="BackgroundImageFix"/>
<feColorMatrix in="SourceAlpha" type="matrix" values="0 0 0 0 0 0 0 0 0 0 0 0 0 0 0 0 0 0 127 0" result="hardAlpha"/>
<feOffset dy="4"/>
<feGaussianBlur stdDeviation="2"/>
<feComposite in2="hardAlpha" operator="out"/>
<feColorMatrix type="matrix" values="0 0 0 0 0 0 0 0 0 0 0 0 0 0 0 0 0 0 0.25 0"/>
<feBlend mode="normal" in2="BackgroundImageFix" result="effect1_dropShadow_11_26"/>
<feBlend mode="normal" in="SourceGraphic" in2="effect1_dropShadow_11_26" result="shape"/>
</filter>
<filter id="filter3_d_11_26" x="1486.5" y="381.746" width="411" height="801.967" filterUnits="userSpaceOnUse" color-interpolation-filters="sRGB">
<feFlood flood-opacity="0" result="BackgroundImageFix"/>
<feColorMatrix in="SourceAlpha" type="matrix" values="0 0 0 0 0 0 0 0 0 0 0 0 0 0 0 0 0 0 127 0" result="hardAlpha"/>
<feOffset dy="4"/>
<feGaussianBlur stdDeviation="2"/>
<feComposite in2="hardAlpha" operator="out"/>
<feColorMatrix type="matrix" values="0 0 0 0 0 0 0 0 0 0 0 0 0 0 0 0 0 0 0.25 0"/>
<feBlend mode="normal" in2="BackgroundImageFix" result="effect1_dropShadow_11_26"/>
<feBlend mode="normal" in="SourceGraphic" in2="effect1_dropShadow_11_26" result="shape"/>
</filter>
<filter id="filter4_d_11_26" x="1486.5" y="893.787" width="285.202" height="570.439" filterUnits="userSpaceOnUse" color-interpolation-filters="sRGB">
<feFlood flood-opacity="0" result="BackgroundImageFix"/>
<feColorMatrix in="SourceAlpha" type="matrix" values="0 0 0 0 0 0 0 0 0 0 0 0 0 0 0 0 0 0 127 0" result="hardAlpha"/>
<feOffset dy="4"/>
<feGaussianBlur stdDeviation="2"/>
<feComposite in2="hardAlpha" operator="out"/>
<feColorMatrix type="matrix" values="0 0 0 0 0 0 0 0 0 0 0 0 0 0 0 0 0 0 0.25 0"/>
<feBlend mode="normal" in2="BackgroundImageFix" result="effect1_dropShadow_11_26"/>
<feBlend mode="normal" in="SourceGraphic" in2="effect1_dropShadow_11_26" result="shape"/>
</filter>
<filter id="filter5_d_11_26" x="389.877" y="218.5" width="751.623" height="833.802" filterUnits="userSpaceOnUse" color-interpolation-filters="sRGB">
<feFlood flood-opacity="0" result="BackgroundImageFix"/>
<feColorMatrix in="SourceAlpha" type="matrix" values="0 0 0 0 0 0 0 0 0 0 0 0 0 0 0 0 0 0 127 0" result="hardAlpha"/>
<feOffset dy="4"/>
<feGaussianBlur stdDeviation="2"/>
<feComposite in2="hardAlpha" operator="out"/>
<feColorMatrix type="matrix" values="0 0 0 0 0 0 0 0 0 0 0 0 0 0 0 0 0 0 0.25 0"/>
<feBlend mode="normal" in2="BackgroundImageFix" result="effect1_dropShadow_11_26"/>
<feBlend mode="normal" in="SourceGraphic" in2="effect1_dropShadow_11_26" result="shape"/>
</filter>
<filter id="filter6_d_11_26" x="1134.27" y="214.5" width="763.232" height="839.974" filterUnits="userSpaceOnUse" color-interpolation-filters="sRGB">
<feFlood flood-opacity="0" result="BackgroundImageFix"/>
<feColorMatrix in="SourceAlpha" type="matrix" values="0 0 0 0 0 0 0 0 0 0 0 0 0 0 0 0 0 0 127 0" result="hardAlpha"/>
<feOffset dy="4"/>
<feGaussianBlur stdDeviation="2"/>
<feComposite in2="hardAlpha" operator="out"/>
<feColorMatrix type="matrix" values="0 0 0 0 0 0 0 0 0 0 0 0 0 0 0 0 0 0 0.25 0"/>
<feBlend mode="normal" in2="BackgroundImageFix" result="effect1_dropShadow_11_26"/>
<feBlend mode="normal" in="SourceGraphic" in2="effect1_dropShadow_11_26" result="shape"/>
</filter>
</defs>
</svg>
